<svg height="64" viewBox="0 0 64 64" width="64" xmlns="http://www.w3.org/2000/svg"><g fill="none" fill-rule="evenodd"><circle cx="40" cy="24" fill="#ffaf40" r="23"/><circle cx="40" cy="24" fill="#ffdd95" r="19"/><path d="m45.2126416 31.638779c.1410504-.5938964.435167-1.0001521.8823584-1.218779.4500023-.2200011.9049977-.2600007 1.365-.12 1.0800054.3800019 1.4700015 1.1499942 1.17 2.31-.8200041 2.00001-2.1999903 3.2099979-4.14 3.63-.400002 0-.8299977-.0299997-1.29-.09s-.9399975-.1599993-1.44-.3c-.2800014-.0600003-.5599986-.1149997-.84-.165-.2800014-.0500002-.5499987-.075-.81-.075-.3600018 0-.6899985.0499995-.99.15l-1.17.36c-.8400042.1200006-1.6299963.1600002-2.37.12-.8400042-.2600013-1.364999-.589998-1.575-.99s-.2550006-.8399976-.135-1.32c.0400002-.1800009.1099995-.3349993.21-.465s.2099994-.2749992.33-.435c.1000005-.1600008.2149994-.3149992.345-.465.1300007-.1500007.2349996-.3149991.315-.495l-.03.06c.2200011-1.1200056.4349989-2.1749951.645-3.165s.414999-2.0349945.615-3.135c-.2200011.0200001-.4249991.025-.615.015s-.3949989-.015-.615-.015h-.42c-.3600018 0-.6449989-.1649983-.855-.495s-.315-.6649983-.315-1.005c0-.2600013.0299997-.5449984.09-.855s.1699992-.5749989.33-.795c.1200006-.0800004.3199986-.1599996.6-.24s.5599986-.1399998.84-.18.5299989-.0649999.75-.075c.2200011-.01.33-.0050001.33.015 0-.0200001.0599994-.035.18-.045s.279999-.015.48-.015l1.8-9.12c.1800009-.6800034.6099966-1.1799984 1.29-1.5s1.5699945-.4300005 2.67-.33h.15l1.23.12c1.9000095.4800024 2.9299992 1.7299899 3.09 3.75.0400002.2600013.0200004.4999989-.06.72-.1400007.4200021-.409998.729999-.81.93s-.8199978.2500005-1.26.15c-.3800019-.1200006-.6799989-.3299985-.9-.63s-.33-.6799977-.33-1.14c.0600003-.3000015-.1899972-.5199993-.75-.66-.2200011.0200001-.3849994.0449998-.495.075-.1100005.0300001-.2149995.1049994-.315.225-.0800004.2400012-.2449988.959994-.495 2.16s-.5849979 2.9399886-1.005 5.22c.3600018-.0400002.6799986-.06.96-.06h.87c.8400042-.0200001 1.5799968.0399993 2.22.18.4400022.1400007.7699989.4499976.99.93s.2900004.9799974.21 1.5c-.2400012 1.1800059-.8899947 1.5800019-1.95 1.2-.0800004-.0400002-.1599996-.0649999-.24-.075s-.1699995-.0249999-.27-.045c-.4800024-.1400007-1.0999962-.1800003-1.86-.12l-1.68.15-1.23 6c.3200016-.0400002.6199986-.0699999.9-.09s.5699985-.03.87-.03c.600003 0 1.1649973.0599994 1.695.18s1.0549974.3199986 1.575.6h-.03c.5256313.0584035.9565078-.2053343 1.2926416-.791221z" fill="#ffaf40"/><circle cx="24" cy="41" fill="#ffaf40" r="23"/><circle cx="24" cy="41" fill="#ffdd95" r="19"/><path d="m27.32 28.875c.3733352.1633342.56.4549979.56.875 0 .6300031-.2916638 1.0849986-.875 1.365-.3733352.1866676-.8983299.28-1.575.28-.6066697 0-1.2249968-.0991657-1.855-.2975-.6300031-.1983343-.9799997-.3791658-1.05-.5425-.3966686-1.1200056-.1983373-1.9249976.595-2.415.1866676-.1166673.5483307-.175 1.085-.175 1.4700073 0 2.5083303.3033303 3.115.91zm4.935 12.845c0 1.7033419-.9099909 3.7916543-2.73 6.265-1.7500088 2.2400112-3.4299919 3.36-5.04 3.36-1.5866746 0-3.1966585-.4899951-4.83-1.47-1.400007-1.0266718-2.0766669-1.9716624-2.03-2.835.0466669-.4900024.6416609-.735 1.785-.735.9566715 0 1.8433292.1633317 2.66.49.2800014.2333345.7349968.5249982 1.365.875.3966686.0233335.9624963-.431662 1.6975-1.365s1.1025-1.6566641 1.1025-2.17c0-.3033348-.1983313-.455-.595-.455-.210001 0-1.0966589.0699993-2.66.21-1.5633412.1400007-2.7416627.21-3.535.21-1.7733422 0-2.8816644-.5249947-3.325-1.575-.0233334-.0233334-.035-.139999-.035-.35 0-1.2133394 1.0499895-3.0566543 3.15-5.53 2.3100116-2.6366798 4.3049916-3.955 5.985-3.955 1.190006 0 2.3916606.4549955 3.605 1.365 1.2833398.8166708 1.8783338 1.4466644 1.785 1.89-.2800014 1.4933408-1.2249919 2.24-2.835 2.24-.2566679 0-.5366651-.0408329-.84-.1225-.3033348-.0816671-.6183317-.3383312-.945-.77s-.6766648-.6475-1.05-.6475c-.4200021 0-1.1724946.5891608-2.2575 1.7675s-1.6275 2.0241641-1.6275 2.5375c0 .0700003.0933324.105.28.105.3500017 0 1.5049902-.2099979 3.465-.63s3.4883278-.63 4.585-.63c1.9133429 0 2.87.6416602 2.87 1.925zm-4.9 12.88c0 .9800049-.6649934 1.6916645-1.995 2.135-.3500018.0933338-.9741622-.029165-1.8725-.3675s-1.3591665-.6474986-1.3825-.9275c-.1166672-.9800049.0816641-1.6449982.595-1.995.2800014-.2100011.7349968-.315 1.365-.315.7700039 0 1.4816634.1049989 2.135.315.6533366.210001 1.0091664.4258322 1.0675.6475s.0875.3908328.0875.5075z" fill="#ffaf40"/></g></svg>